G04 #@! TF.GenerationSoftware,KiCad,Pcbnew,6.0.7*
G04 #@! TF.CreationDate,2022-09-06T10:42:03+02:00*
G04 #@! TF.ProjectId,box_o_alps,626f785f-6f5f-4616-9c70-732e6b696361,rev?*
G04 #@! TF.SameCoordinates,Original*
G04 #@! TF.FileFunction,Legend,Top*
G04 #@! TF.FilePolarity,Positive*
%FSLAX46Y46*%
G04 Gerber Fmt 4.6, Leading zero omitted, Abs format (unit mm)*
G04 Created by KiCad (PCBNEW 6.0.7) date 2022-09-06 10:42:03*
%MOMM*%
%LPD*%
G01*
G04 APERTURE LIST*
G04 Aperture macros list*
%AMRoundRect*
0 Rectangle with rounded corners*
0 $1 Rounding radius*
0 $2 $3 $4 $5 $6 $7 $8 $9 X,Y pos of 4 corners*
0 Add a 4 corners polygon primitive as box body*
4,1,4,$2,$3,$4,$5,$6,$7,$8,$9,$2,$3,0*
0 Add four circle primitives for the rounded corners*
1,1,$1+$1,$2,$3*
1,1,$1+$1,$4,$5*
1,1,$1+$1,$6,$7*
1,1,$1+$1,$8,$9*
0 Add four rect primitives between the rounded corners*
20,1,$1+$1,$2,$3,$4,$5,0*
20,1,$1+$1,$4,$5,$6,$7,0*
20,1,$1+$1,$6,$7,$8,$9,0*
20,1,$1+$1,$8,$9,$2,$3,0*%
G04 Aperture macros list end*
%ADD10C,0.150000*%
%ADD11C,0.120000*%
%ADD12C,2.200000*%
%ADD13R,0.900000X1.200000*%
%ADD14C,2.082800*%
%ADD15RoundRect,0.101600X0.939800X-0.939800X0.939800X0.939800X-0.939800X0.939800X-0.939800X-0.939800X0*%
G04 APERTURE END LIST*
D10*
X158051904Y-64727380D02*
X158051904Y-65536904D01*
X158099523Y-65632142D01*
X158147142Y-65679761D01*
X158242380Y-65727380D01*
X158432857Y-65727380D01*
X158528095Y-65679761D01*
X158575714Y-65632142D01*
X158623333Y-65536904D01*
X158623333Y-64727380D01*
X159051904Y-64822619D02*
X159099523Y-64775000D01*
X159194761Y-64727380D01*
X159432857Y-64727380D01*
X159528095Y-64775000D01*
X159575714Y-64822619D01*
X159623333Y-64917857D01*
X159623333Y-65013095D01*
X159575714Y-65155952D01*
X159004285Y-65727380D01*
X159623333Y-65727380D01*
X160528095Y-64727380D02*
X160051904Y-64727380D01*
X160004285Y-65203571D01*
X160051904Y-65155952D01*
X160147142Y-65108333D01*
X160385238Y-65108333D01*
X160480476Y-65155952D01*
X160528095Y-65203571D01*
X160575714Y-65298809D01*
X160575714Y-65536904D01*
X160528095Y-65632142D01*
X160480476Y-65679761D01*
X160385238Y-65727380D01*
X160147142Y-65727380D01*
X160051904Y-65679761D01*
X160004285Y-65632142D01*
X62606904Y-64757380D02*
X62606904Y-65566904D01*
X62654523Y-65662142D01*
X62702142Y-65709761D01*
X62797380Y-65757380D01*
X62987857Y-65757380D01*
X63083095Y-65709761D01*
X63130714Y-65662142D01*
X63178333Y-65566904D01*
X63178333Y-64757380D01*
X63606904Y-64852619D02*
X63654523Y-64805000D01*
X63749761Y-64757380D01*
X63987857Y-64757380D01*
X64083095Y-64805000D01*
X64130714Y-64852619D01*
X64178333Y-64947857D01*
X64178333Y-65043095D01*
X64130714Y-65185952D01*
X63559285Y-65757380D01*
X64178333Y-65757380D01*
X64559285Y-64852619D02*
X64606904Y-64805000D01*
X64702142Y-64757380D01*
X64940238Y-64757380D01*
X65035476Y-64805000D01*
X65083095Y-64852619D01*
X65130714Y-64947857D01*
X65130714Y-65043095D01*
X65083095Y-65185952D01*
X64511666Y-65757380D01*
X65130714Y-65757380D01*
X43486904Y-26557380D02*
X43486904Y-27366904D01*
X43534523Y-27462142D01*
X43582142Y-27509761D01*
X43677380Y-27557380D01*
X43867857Y-27557380D01*
X43963095Y-27509761D01*
X44010714Y-27462142D01*
X44058333Y-27366904D01*
X44058333Y-26557380D01*
X44725000Y-26557380D02*
X44820238Y-26557380D01*
X44915476Y-26605000D01*
X44963095Y-26652619D01*
X45010714Y-26747857D01*
X45058333Y-26938333D01*
X45058333Y-27176428D01*
X45010714Y-27366904D01*
X44963095Y-27462142D01*
X44915476Y-27509761D01*
X44820238Y-27557380D01*
X44725000Y-27557380D01*
X44629761Y-27509761D01*
X44582142Y-27462142D01*
X44534523Y-27366904D01*
X44486904Y-27176428D01*
X44486904Y-26938333D01*
X44534523Y-26747857D01*
X44582142Y-26652619D01*
X44629761Y-26605000D01*
X44725000Y-26557380D01*
X46010714Y-27557380D02*
X45439285Y-27557380D01*
X45725000Y-27557380D02*
X45725000Y-26557380D01*
X45629761Y-26700238D01*
X45534523Y-26795476D01*
X45439285Y-26843095D01*
X43506904Y-64757380D02*
X43506904Y-65566904D01*
X43554523Y-65662142D01*
X43602142Y-65709761D01*
X43697380Y-65757380D01*
X43887857Y-65757380D01*
X43983095Y-65709761D01*
X44030714Y-65662142D01*
X44078333Y-65566904D01*
X44078333Y-64757380D01*
X44506904Y-64852619D02*
X44554523Y-64805000D01*
X44649761Y-64757380D01*
X44887857Y-64757380D01*
X44983095Y-64805000D01*
X45030714Y-64852619D01*
X45078333Y-64947857D01*
X45078333Y-65043095D01*
X45030714Y-65185952D01*
X44459285Y-65757380D01*
X45078333Y-65757380D01*
X46030714Y-65757380D02*
X45459285Y-65757380D01*
X45745000Y-65757380D02*
X45745000Y-64757380D01*
X45649761Y-64900238D01*
X45554523Y-64995476D01*
X45459285Y-65043095D01*
X24406904Y-45658630D02*
X24406904Y-46468154D01*
X24454523Y-46563392D01*
X24502142Y-46611011D01*
X24597380Y-46658630D01*
X24787857Y-46658630D01*
X24883095Y-46611011D01*
X24930714Y-46563392D01*
X24978333Y-46468154D01*
X24978333Y-45658630D01*
X25978333Y-46658630D02*
X25406904Y-46658630D01*
X25692619Y-46658630D02*
X25692619Y-45658630D01*
X25597380Y-45801488D01*
X25502142Y-45896726D01*
X25406904Y-45944345D01*
X26597380Y-45658630D02*
X26692619Y-45658630D01*
X26787857Y-45706250D01*
X26835476Y-45753869D01*
X26883095Y-45849107D01*
X26930714Y-46039583D01*
X26930714Y-46277678D01*
X26883095Y-46468154D01*
X26835476Y-46563392D01*
X26787857Y-46611011D01*
X26692619Y-46658630D01*
X26597380Y-46658630D01*
X26502142Y-46611011D01*
X26454523Y-46563392D01*
X26406904Y-46468154D01*
X26359285Y-46277678D01*
X26359285Y-46039583D01*
X26406904Y-45849107D01*
X26454523Y-45753869D01*
X26502142Y-45706250D01*
X26597380Y-45658630D01*
X43494404Y-45658630D02*
X43494404Y-46468154D01*
X43542023Y-46563392D01*
X43589642Y-46611011D01*
X43684880Y-46658630D01*
X43875357Y-46658630D01*
X43970595Y-46611011D01*
X44018214Y-46563392D01*
X44065833Y-46468154D01*
X44065833Y-45658630D01*
X45065833Y-46658630D02*
X44494404Y-46658630D01*
X44780119Y-46658630D02*
X44780119Y-45658630D01*
X44684880Y-45801488D01*
X44589642Y-45896726D01*
X44494404Y-45944345D01*
X46018214Y-46658630D02*
X45446785Y-46658630D01*
X45732500Y-46658630D02*
X45732500Y-45658630D01*
X45637261Y-45801488D01*
X45542023Y-45896726D01*
X45446785Y-45944345D01*
X81646904Y-26557380D02*
X81646904Y-27366904D01*
X81694523Y-27462142D01*
X81742142Y-27509761D01*
X81837380Y-27557380D01*
X82027857Y-27557380D01*
X82123095Y-27509761D01*
X82170714Y-27462142D01*
X82218333Y-27366904D01*
X82218333Y-26557380D01*
X82885000Y-26557380D02*
X82980238Y-26557380D01*
X83075476Y-26605000D01*
X83123095Y-26652619D01*
X83170714Y-26747857D01*
X83218333Y-26938333D01*
X83218333Y-27176428D01*
X83170714Y-27366904D01*
X83123095Y-27462142D01*
X83075476Y-27509761D01*
X82980238Y-27557380D01*
X82885000Y-27557380D01*
X82789761Y-27509761D01*
X82742142Y-27462142D01*
X82694523Y-27366904D01*
X82646904Y-27176428D01*
X82646904Y-26938333D01*
X82694523Y-26747857D01*
X82742142Y-26652619D01*
X82789761Y-26605000D01*
X82885000Y-26557380D01*
X83551666Y-26557380D02*
X84170714Y-26557380D01*
X83837380Y-26938333D01*
X83980238Y-26938333D01*
X84075476Y-26985952D01*
X84123095Y-27033571D01*
X84170714Y-27128809D01*
X84170714Y-27366904D01*
X84123095Y-27462142D01*
X84075476Y-27509761D01*
X83980238Y-27557380D01*
X83694523Y-27557380D01*
X83599285Y-27509761D01*
X83551666Y-27462142D01*
X177164404Y-26582380D02*
X177164404Y-27391904D01*
X177212023Y-27487142D01*
X177259642Y-27534761D01*
X177354880Y-27582380D01*
X177545357Y-27582380D01*
X177640595Y-27534761D01*
X177688214Y-27487142D01*
X177735833Y-27391904D01*
X177735833Y-26582380D01*
X178402500Y-26582380D02*
X178497738Y-26582380D01*
X178592976Y-26630000D01*
X178640595Y-26677619D01*
X178688214Y-26772857D01*
X178735833Y-26963333D01*
X178735833Y-27201428D01*
X178688214Y-27391904D01*
X178640595Y-27487142D01*
X178592976Y-27534761D01*
X178497738Y-27582380D01*
X178402500Y-27582380D01*
X178307261Y-27534761D01*
X178259642Y-27487142D01*
X178212023Y-27391904D01*
X178164404Y-27201428D01*
X178164404Y-26963333D01*
X178212023Y-26772857D01*
X178259642Y-26677619D01*
X178307261Y-26630000D01*
X178402500Y-26582380D01*
X179592976Y-26582380D02*
X179402500Y-26582380D01*
X179307261Y-26630000D01*
X179259642Y-26677619D01*
X179164404Y-26820476D01*
X179116785Y-27010952D01*
X179116785Y-27391904D01*
X179164404Y-27487142D01*
X179212023Y-27534761D01*
X179307261Y-27582380D01*
X179497738Y-27582380D01*
X179592976Y-27534761D01*
X179640595Y-27487142D01*
X179688214Y-27391904D01*
X179688214Y-27153809D01*
X179640595Y-27058571D01*
X179592976Y-27010952D01*
X179497738Y-26963333D01*
X179307261Y-26963333D01*
X179212023Y-27010952D01*
X179164404Y-27058571D01*
X179116785Y-27153809D01*
X177159404Y-45672380D02*
X177159404Y-46481904D01*
X177207023Y-46577142D01*
X177254642Y-46624761D01*
X177349880Y-46672380D01*
X177540357Y-46672380D01*
X177635595Y-46624761D01*
X177683214Y-46577142D01*
X177730833Y-46481904D01*
X177730833Y-45672380D01*
X178730833Y-46672380D02*
X178159404Y-46672380D01*
X178445119Y-46672380D02*
X178445119Y-45672380D01*
X178349880Y-45815238D01*
X178254642Y-45910476D01*
X178159404Y-45958095D01*
X179587976Y-45672380D02*
X179397500Y-45672380D01*
X179302261Y-45720000D01*
X179254642Y-45767619D01*
X179159404Y-45910476D01*
X179111785Y-46100952D01*
X179111785Y-46481904D01*
X179159404Y-46577142D01*
X179207023Y-46624761D01*
X179302261Y-46672380D01*
X179492738Y-46672380D01*
X179587976Y-46624761D01*
X179635595Y-46577142D01*
X179683214Y-46481904D01*
X179683214Y-46243809D01*
X179635595Y-46148571D01*
X179587976Y-46100952D01*
X179492738Y-46053333D01*
X179302261Y-46053333D01*
X179207023Y-46100952D01*
X179159404Y-46148571D01*
X179111785Y-46243809D01*
X177159404Y-64727380D02*
X177159404Y-65536904D01*
X177207023Y-65632142D01*
X177254642Y-65679761D01*
X177349880Y-65727380D01*
X177540357Y-65727380D01*
X177635595Y-65679761D01*
X177683214Y-65632142D01*
X177730833Y-65536904D01*
X177730833Y-64727380D01*
X178159404Y-64822619D02*
X178207023Y-64775000D01*
X178302261Y-64727380D01*
X178540357Y-64727380D01*
X178635595Y-64775000D01*
X178683214Y-64822619D01*
X178730833Y-64917857D01*
X178730833Y-65013095D01*
X178683214Y-65155952D01*
X178111785Y-65727380D01*
X178730833Y-65727380D01*
X179587976Y-64727380D02*
X179397500Y-64727380D01*
X179302261Y-64775000D01*
X179254642Y-64822619D01*
X179159404Y-64965476D01*
X179111785Y-65155952D01*
X179111785Y-65536904D01*
X179159404Y-65632142D01*
X179207023Y-65679761D01*
X179302261Y-65727380D01*
X179492738Y-65727380D01*
X179587976Y-65679761D01*
X179635595Y-65632142D01*
X179683214Y-65536904D01*
X179683214Y-65298809D01*
X179635595Y-65203571D01*
X179587976Y-65155952D01*
X179492738Y-65108333D01*
X179302261Y-65108333D01*
X179207023Y-65155952D01*
X179159404Y-65203571D01*
X179111785Y-65298809D01*
X100756904Y-45658630D02*
X100756904Y-46468154D01*
X100804523Y-46563392D01*
X100852142Y-46611011D01*
X100947380Y-46658630D01*
X101137857Y-46658630D01*
X101233095Y-46611011D01*
X101280714Y-46563392D01*
X101328333Y-46468154D01*
X101328333Y-45658630D01*
X102328333Y-46658630D02*
X101756904Y-46658630D01*
X102042619Y-46658630D02*
X102042619Y-45658630D01*
X101947380Y-45801488D01*
X101852142Y-45896726D01*
X101756904Y-45944345D01*
X103185476Y-45991964D02*
X103185476Y-46658630D01*
X102947380Y-45611011D02*
X102709285Y-46325297D01*
X103328333Y-46325297D01*
X100726904Y-26557380D02*
X100726904Y-27366904D01*
X100774523Y-27462142D01*
X100822142Y-27509761D01*
X100917380Y-27557380D01*
X101107857Y-27557380D01*
X101203095Y-27509761D01*
X101250714Y-27462142D01*
X101298333Y-27366904D01*
X101298333Y-26557380D01*
X101965000Y-26557380D02*
X102060238Y-26557380D01*
X102155476Y-26605000D01*
X102203095Y-26652619D01*
X102250714Y-26747857D01*
X102298333Y-26938333D01*
X102298333Y-27176428D01*
X102250714Y-27366904D01*
X102203095Y-27462142D01*
X102155476Y-27509761D01*
X102060238Y-27557380D01*
X101965000Y-27557380D01*
X101869761Y-27509761D01*
X101822142Y-27462142D01*
X101774523Y-27366904D01*
X101726904Y-27176428D01*
X101726904Y-26938333D01*
X101774523Y-26747857D01*
X101822142Y-26652619D01*
X101869761Y-26605000D01*
X101965000Y-26557380D01*
X103155476Y-26890714D02*
X103155476Y-27557380D01*
X102917380Y-26509761D02*
X102679285Y-27224047D01*
X103298333Y-27224047D01*
X62566904Y-26557380D02*
X62566904Y-27366904D01*
X62614523Y-27462142D01*
X62662142Y-27509761D01*
X62757380Y-27557380D01*
X62947857Y-27557380D01*
X63043095Y-27509761D01*
X63090714Y-27462142D01*
X63138333Y-27366904D01*
X63138333Y-26557380D01*
X63805000Y-26557380D02*
X63900238Y-26557380D01*
X63995476Y-26605000D01*
X64043095Y-26652619D01*
X64090714Y-26747857D01*
X64138333Y-26938333D01*
X64138333Y-27176428D01*
X64090714Y-27366904D01*
X64043095Y-27462142D01*
X63995476Y-27509761D01*
X63900238Y-27557380D01*
X63805000Y-27557380D01*
X63709761Y-27509761D01*
X63662142Y-27462142D01*
X63614523Y-27366904D01*
X63566904Y-27176428D01*
X63566904Y-26938333D01*
X63614523Y-26747857D01*
X63662142Y-26652619D01*
X63709761Y-26605000D01*
X63805000Y-26557380D01*
X64519285Y-26652619D02*
X64566904Y-26605000D01*
X64662142Y-26557380D01*
X64900238Y-26557380D01*
X64995476Y-26605000D01*
X65043095Y-26652619D01*
X65090714Y-26747857D01*
X65090714Y-26843095D01*
X65043095Y-26985952D01*
X64471666Y-27557380D01*
X65090714Y-27557380D01*
X158051904Y-26582380D02*
X158051904Y-27391904D01*
X158099523Y-27487142D01*
X158147142Y-27534761D01*
X158242380Y-27582380D01*
X158432857Y-27582380D01*
X158528095Y-27534761D01*
X158575714Y-27487142D01*
X158623333Y-27391904D01*
X158623333Y-26582380D01*
X159290000Y-26582380D02*
X159385238Y-26582380D01*
X159480476Y-26630000D01*
X159528095Y-26677619D01*
X159575714Y-26772857D01*
X159623333Y-26963333D01*
X159623333Y-27201428D01*
X159575714Y-27391904D01*
X159528095Y-27487142D01*
X159480476Y-27534761D01*
X159385238Y-27582380D01*
X159290000Y-27582380D01*
X159194761Y-27534761D01*
X159147142Y-27487142D01*
X159099523Y-27391904D01*
X159051904Y-27201428D01*
X159051904Y-26963333D01*
X159099523Y-26772857D01*
X159147142Y-26677619D01*
X159194761Y-26630000D01*
X159290000Y-26582380D01*
X160528095Y-26582380D02*
X160051904Y-26582380D01*
X160004285Y-27058571D01*
X160051904Y-27010952D01*
X160147142Y-26963333D01*
X160385238Y-26963333D01*
X160480476Y-27010952D01*
X160528095Y-27058571D01*
X160575714Y-27153809D01*
X160575714Y-27391904D01*
X160528095Y-27487142D01*
X160480476Y-27534761D01*
X160385238Y-27582380D01*
X160147142Y-27582380D01*
X160051904Y-27534761D01*
X160004285Y-27487142D01*
X158051904Y-45672380D02*
X158051904Y-46481904D01*
X158099523Y-46577142D01*
X158147142Y-46624761D01*
X158242380Y-46672380D01*
X158432857Y-46672380D01*
X158528095Y-46624761D01*
X158575714Y-46577142D01*
X158623333Y-46481904D01*
X158623333Y-45672380D01*
X159623333Y-46672380D02*
X159051904Y-46672380D01*
X159337619Y-46672380D02*
X159337619Y-45672380D01*
X159242380Y-45815238D01*
X159147142Y-45910476D01*
X159051904Y-45958095D01*
X160528095Y-45672380D02*
X160051904Y-45672380D01*
X160004285Y-46148571D01*
X160051904Y-46100952D01*
X160147142Y-46053333D01*
X160385238Y-46053333D01*
X160480476Y-46100952D01*
X160528095Y-46148571D01*
X160575714Y-46243809D01*
X160575714Y-46481904D01*
X160528095Y-46577142D01*
X160480476Y-46624761D01*
X160385238Y-46672380D01*
X160147142Y-46672380D01*
X160051904Y-46624761D01*
X160004285Y-46577142D01*
X100806904Y-64762380D02*
X100806904Y-65571904D01*
X100854523Y-65667142D01*
X100902142Y-65714761D01*
X100997380Y-65762380D01*
X101187857Y-65762380D01*
X101283095Y-65714761D01*
X101330714Y-65667142D01*
X101378333Y-65571904D01*
X101378333Y-64762380D01*
X101806904Y-64857619D02*
X101854523Y-64810000D01*
X101949761Y-64762380D01*
X102187857Y-64762380D01*
X102283095Y-64810000D01*
X102330714Y-64857619D01*
X102378333Y-64952857D01*
X102378333Y-65048095D01*
X102330714Y-65190952D01*
X101759285Y-65762380D01*
X102378333Y-65762380D01*
X103235476Y-65095714D02*
X103235476Y-65762380D01*
X102997380Y-64714761D02*
X102759285Y-65429047D01*
X103378333Y-65429047D01*
X196266904Y-45672380D02*
X196266904Y-46481904D01*
X196314523Y-46577142D01*
X196362142Y-46624761D01*
X196457380Y-46672380D01*
X196647857Y-46672380D01*
X196743095Y-46624761D01*
X196790714Y-46577142D01*
X196838333Y-46481904D01*
X196838333Y-45672380D01*
X197838333Y-46672380D02*
X197266904Y-46672380D01*
X197552619Y-46672380D02*
X197552619Y-45672380D01*
X197457380Y-45815238D01*
X197362142Y-45910476D01*
X197266904Y-45958095D01*
X198171666Y-45672380D02*
X198838333Y-45672380D01*
X198409761Y-46672380D01*
X62581904Y-45658630D02*
X62581904Y-46468154D01*
X62629523Y-46563392D01*
X62677142Y-46611011D01*
X62772380Y-46658630D01*
X62962857Y-46658630D01*
X63058095Y-46611011D01*
X63105714Y-46563392D01*
X63153333Y-46468154D01*
X63153333Y-45658630D01*
X64153333Y-46658630D02*
X63581904Y-46658630D01*
X63867619Y-46658630D02*
X63867619Y-45658630D01*
X63772380Y-45801488D01*
X63677142Y-45896726D01*
X63581904Y-45944345D01*
X64534285Y-45753869D02*
X64581904Y-45706250D01*
X64677142Y-45658630D01*
X64915238Y-45658630D01*
X65010476Y-45706250D01*
X65058095Y-45753869D01*
X65105714Y-45849107D01*
X65105714Y-45944345D01*
X65058095Y-46087202D01*
X64486666Y-46658630D01*
X65105714Y-46658630D01*
X234481904Y-64727380D02*
X234481904Y-65536904D01*
X234529523Y-65632142D01*
X234577142Y-65679761D01*
X234672380Y-65727380D01*
X234862857Y-65727380D01*
X234958095Y-65679761D01*
X235005714Y-65632142D01*
X235053333Y-65536904D01*
X235053333Y-64727380D01*
X235481904Y-64822619D02*
X235529523Y-64775000D01*
X235624761Y-64727380D01*
X235862857Y-64727380D01*
X235958095Y-64775000D01*
X236005714Y-64822619D01*
X236053333Y-64917857D01*
X236053333Y-65013095D01*
X236005714Y-65155952D01*
X235434285Y-65727380D01*
X236053333Y-65727380D01*
X236529523Y-65727380D02*
X236720000Y-65727380D01*
X236815238Y-65679761D01*
X236862857Y-65632142D01*
X236958095Y-65489285D01*
X237005714Y-65298809D01*
X237005714Y-64917857D01*
X236958095Y-64822619D01*
X236910476Y-64775000D01*
X236815238Y-64727380D01*
X236624761Y-64727380D01*
X236529523Y-64775000D01*
X236481904Y-64822619D01*
X236434285Y-64917857D01*
X236434285Y-65155952D01*
X236481904Y-65251190D01*
X236529523Y-65298809D01*
X236624761Y-65346428D01*
X236815238Y-65346428D01*
X236910476Y-65298809D01*
X236958095Y-65251190D01*
X237005714Y-65155952D01*
X234481904Y-45672380D02*
X234481904Y-46481904D01*
X234529523Y-46577142D01*
X234577142Y-46624761D01*
X234672380Y-46672380D01*
X234862857Y-46672380D01*
X234958095Y-46624761D01*
X235005714Y-46577142D01*
X235053333Y-46481904D01*
X235053333Y-45672380D01*
X236053333Y-46672380D02*
X235481904Y-46672380D01*
X235767619Y-46672380D02*
X235767619Y-45672380D01*
X235672380Y-45815238D01*
X235577142Y-45910476D01*
X235481904Y-45958095D01*
X236529523Y-46672380D02*
X236720000Y-46672380D01*
X236815238Y-46624761D01*
X236862857Y-46577142D01*
X236958095Y-46434285D01*
X237005714Y-46243809D01*
X237005714Y-45862857D01*
X236958095Y-45767619D01*
X236910476Y-45720000D01*
X236815238Y-45672380D01*
X236624761Y-45672380D01*
X236529523Y-45720000D01*
X236481904Y-45767619D01*
X236434285Y-45862857D01*
X236434285Y-46100952D01*
X236481904Y-46196190D01*
X236529523Y-46243809D01*
X236624761Y-46291428D01*
X236815238Y-46291428D01*
X236910476Y-46243809D01*
X236958095Y-46196190D01*
X237005714Y-46100952D01*
X234501904Y-26582380D02*
X234501904Y-27391904D01*
X234549523Y-27487142D01*
X234597142Y-27534761D01*
X234692380Y-27582380D01*
X234882857Y-27582380D01*
X234978095Y-27534761D01*
X235025714Y-27487142D01*
X235073333Y-27391904D01*
X235073333Y-26582380D01*
X235740000Y-26582380D02*
X235835238Y-26582380D01*
X235930476Y-26630000D01*
X235978095Y-26677619D01*
X236025714Y-26772857D01*
X236073333Y-26963333D01*
X236073333Y-27201428D01*
X236025714Y-27391904D01*
X235978095Y-27487142D01*
X235930476Y-27534761D01*
X235835238Y-27582380D01*
X235740000Y-27582380D01*
X235644761Y-27534761D01*
X235597142Y-27487142D01*
X235549523Y-27391904D01*
X235501904Y-27201428D01*
X235501904Y-26963333D01*
X235549523Y-26772857D01*
X235597142Y-26677619D01*
X235644761Y-26630000D01*
X235740000Y-26582380D01*
X236549523Y-27582380D02*
X236740000Y-27582380D01*
X236835238Y-27534761D01*
X236882857Y-27487142D01*
X236978095Y-27344285D01*
X237025714Y-27153809D01*
X237025714Y-26772857D01*
X236978095Y-26677619D01*
X236930476Y-26630000D01*
X236835238Y-26582380D01*
X236644761Y-26582380D01*
X236549523Y-26630000D01*
X236501904Y-26677619D01*
X236454285Y-26772857D01*
X236454285Y-27010952D01*
X236501904Y-27106190D01*
X236549523Y-27153809D01*
X236644761Y-27201428D01*
X236835238Y-27201428D01*
X236930476Y-27153809D01*
X236978095Y-27106190D01*
X237025714Y-27010952D01*
X24406904Y-26557380D02*
X24406904Y-27366904D01*
X24454523Y-27462142D01*
X24502142Y-27509761D01*
X24597380Y-27557380D01*
X24787857Y-27557380D01*
X24883095Y-27509761D01*
X24930714Y-27462142D01*
X24978333Y-27366904D01*
X24978333Y-26557380D01*
X25645000Y-26557380D02*
X25740238Y-26557380D01*
X25835476Y-26605000D01*
X25883095Y-26652619D01*
X25930714Y-26747857D01*
X25978333Y-26938333D01*
X25978333Y-27176428D01*
X25930714Y-27366904D01*
X25883095Y-27462142D01*
X25835476Y-27509761D01*
X25740238Y-27557380D01*
X25645000Y-27557380D01*
X25549761Y-27509761D01*
X25502142Y-27462142D01*
X25454523Y-27366904D01*
X25406904Y-27176428D01*
X25406904Y-26938333D01*
X25454523Y-26747857D01*
X25502142Y-26652619D01*
X25549761Y-26605000D01*
X25645000Y-26557380D01*
X26597380Y-26557380D02*
X26692619Y-26557380D01*
X26787857Y-26605000D01*
X26835476Y-26652619D01*
X26883095Y-26747857D01*
X26930714Y-26938333D01*
X26930714Y-27176428D01*
X26883095Y-27366904D01*
X26835476Y-27462142D01*
X26787857Y-27509761D01*
X26692619Y-27557380D01*
X26597380Y-27557380D01*
X26502142Y-27509761D01*
X26454523Y-27462142D01*
X26406904Y-27366904D01*
X26359285Y-27176428D01*
X26359285Y-26938333D01*
X26406904Y-26747857D01*
X26454523Y-26652619D01*
X26502142Y-26605000D01*
X26597380Y-26557380D01*
X196266904Y-64727380D02*
X196266904Y-65536904D01*
X196314523Y-65632142D01*
X196362142Y-65679761D01*
X196457380Y-65727380D01*
X196647857Y-65727380D01*
X196743095Y-65679761D01*
X196790714Y-65632142D01*
X196838333Y-65536904D01*
X196838333Y-64727380D01*
X197266904Y-64822619D02*
X197314523Y-64775000D01*
X197409761Y-64727380D01*
X197647857Y-64727380D01*
X197743095Y-64775000D01*
X197790714Y-64822619D01*
X197838333Y-64917857D01*
X197838333Y-65013095D01*
X197790714Y-65155952D01*
X197219285Y-65727380D01*
X197838333Y-65727380D01*
X198171666Y-64727380D02*
X198838333Y-64727380D01*
X198409761Y-65727380D01*
X136002380Y-51489285D02*
X136811904Y-51489285D01*
X136907142Y-51441666D01*
X136954761Y-51394047D01*
X137002380Y-51298809D01*
X137002380Y-51108333D01*
X136954761Y-51013095D01*
X136907142Y-50965476D01*
X136811904Y-50917857D01*
X136002380Y-50917857D01*
X137002380Y-49917857D02*
X137002380Y-50489285D01*
X137002380Y-50203571D02*
X136002380Y-50203571D01*
X136145238Y-50298809D01*
X136240476Y-50394047D01*
X136288095Y-50489285D01*
X136002380Y-49298809D02*
X136002380Y-49203571D01*
X136050000Y-49108333D01*
X136097619Y-49060714D01*
X136192857Y-49013095D01*
X136383333Y-48965476D01*
X136621428Y-48965476D01*
X136811904Y-49013095D01*
X136907142Y-49060714D01*
X136954761Y-49108333D01*
X137002380Y-49203571D01*
X137002380Y-49298809D01*
X136954761Y-49394047D01*
X136907142Y-49441666D01*
X136811904Y-49489285D01*
X136621428Y-49536904D01*
X136383333Y-49536904D01*
X136192857Y-49489285D01*
X136097619Y-49441666D01*
X136050000Y-49394047D01*
X136002380Y-49298809D01*
X136002380Y-48346428D02*
X136002380Y-48251190D01*
X136050000Y-48155952D01*
X136097619Y-48108333D01*
X136192857Y-48060714D01*
X136383333Y-48013095D01*
X136621428Y-48013095D01*
X136811904Y-48060714D01*
X136907142Y-48108333D01*
X136954761Y-48155952D01*
X137002380Y-48251190D01*
X137002380Y-48346428D01*
X136954761Y-48441666D01*
X136907142Y-48489285D01*
X136811904Y-48536904D01*
X136621428Y-48584523D01*
X136383333Y-48584523D01*
X136192857Y-48536904D01*
X136097619Y-48489285D01*
X136050000Y-48441666D01*
X136002380Y-48346428D01*
X215389404Y-26582380D02*
X215389404Y-27391904D01*
X215437023Y-27487142D01*
X215484642Y-27534761D01*
X215579880Y-27582380D01*
X215770357Y-27582380D01*
X215865595Y-27534761D01*
X215913214Y-27487142D01*
X215960833Y-27391904D01*
X215960833Y-26582380D01*
X216627500Y-26582380D02*
X216722738Y-26582380D01*
X216817976Y-26630000D01*
X216865595Y-26677619D01*
X216913214Y-26772857D01*
X216960833Y-26963333D01*
X216960833Y-27201428D01*
X216913214Y-27391904D01*
X216865595Y-27487142D01*
X216817976Y-27534761D01*
X216722738Y-27582380D01*
X216627500Y-27582380D01*
X216532261Y-27534761D01*
X216484642Y-27487142D01*
X216437023Y-27391904D01*
X216389404Y-27201428D01*
X216389404Y-26963333D01*
X216437023Y-26772857D01*
X216484642Y-26677619D01*
X216532261Y-26630000D01*
X216627500Y-26582380D01*
X217532261Y-27010952D02*
X217437023Y-26963333D01*
X217389404Y-26915714D01*
X217341785Y-26820476D01*
X217341785Y-26772857D01*
X217389404Y-26677619D01*
X217437023Y-26630000D01*
X217532261Y-26582380D01*
X217722738Y-26582380D01*
X217817976Y-26630000D01*
X217865595Y-26677619D01*
X217913214Y-26772857D01*
X217913214Y-26820476D01*
X217865595Y-26915714D01*
X217817976Y-26963333D01*
X217722738Y-27010952D01*
X217532261Y-27010952D01*
X217437023Y-27058571D01*
X217389404Y-27106190D01*
X217341785Y-27201428D01*
X217341785Y-27391904D01*
X217389404Y-27487142D01*
X217437023Y-27534761D01*
X217532261Y-27582380D01*
X217722738Y-27582380D01*
X217817976Y-27534761D01*
X217865595Y-27487142D01*
X217913214Y-27391904D01*
X217913214Y-27201428D01*
X217865595Y-27106190D01*
X217817976Y-27058571D01*
X217722738Y-27010952D01*
X215374404Y-45672380D02*
X215374404Y-46481904D01*
X215422023Y-46577142D01*
X215469642Y-46624761D01*
X215564880Y-46672380D01*
X215755357Y-46672380D01*
X215850595Y-46624761D01*
X215898214Y-46577142D01*
X215945833Y-46481904D01*
X215945833Y-45672380D01*
X216945833Y-46672380D02*
X216374404Y-46672380D01*
X216660119Y-46672380D02*
X216660119Y-45672380D01*
X216564880Y-45815238D01*
X216469642Y-45910476D01*
X216374404Y-45958095D01*
X217517261Y-46100952D02*
X217422023Y-46053333D01*
X217374404Y-46005714D01*
X217326785Y-45910476D01*
X217326785Y-45862857D01*
X217374404Y-45767619D01*
X217422023Y-45720000D01*
X217517261Y-45672380D01*
X217707738Y-45672380D01*
X217802976Y-45720000D01*
X217850595Y-45767619D01*
X217898214Y-45862857D01*
X217898214Y-45910476D01*
X217850595Y-46005714D01*
X217802976Y-46053333D01*
X217707738Y-46100952D01*
X217517261Y-46100952D01*
X217422023Y-46148571D01*
X217374404Y-46196190D01*
X217326785Y-46291428D01*
X217326785Y-46481904D01*
X217374404Y-46577142D01*
X217422023Y-46624761D01*
X217517261Y-46672380D01*
X217707738Y-46672380D01*
X217802976Y-46624761D01*
X217850595Y-46577142D01*
X217898214Y-46481904D01*
X217898214Y-46291428D01*
X217850595Y-46196190D01*
X217802976Y-46148571D01*
X217707738Y-46100952D01*
X86451904Y-83882380D02*
X86451904Y-84691904D01*
X86499523Y-84787142D01*
X86547142Y-84834761D01*
X86642380Y-84882380D01*
X86832857Y-84882380D01*
X86928095Y-84834761D01*
X86975714Y-84787142D01*
X87023333Y-84691904D01*
X87023333Y-83882380D01*
X87404285Y-83882380D02*
X88023333Y-83882380D01*
X87690000Y-84263333D01*
X87832857Y-84263333D01*
X87928095Y-84310952D01*
X87975714Y-84358571D01*
X88023333Y-84453809D01*
X88023333Y-84691904D01*
X87975714Y-84787142D01*
X87928095Y-84834761D01*
X87832857Y-84882380D01*
X87547142Y-84882380D01*
X87451904Y-84834761D01*
X87404285Y-84787142D01*
X88356666Y-83882380D02*
X88975714Y-83882380D01*
X88642380Y-84263333D01*
X88785238Y-84263333D01*
X88880476Y-84310952D01*
X88928095Y-84358571D01*
X88975714Y-84453809D01*
X88975714Y-84691904D01*
X88928095Y-84787142D01*
X88880476Y-84834761D01*
X88785238Y-84882380D01*
X88499523Y-84882380D01*
X88404285Y-84834761D01*
X88356666Y-84787142D01*
X172441904Y-83882380D02*
X172441904Y-84691904D01*
X172489523Y-84787142D01*
X172537142Y-84834761D01*
X172632380Y-84882380D01*
X172822857Y-84882380D01*
X172918095Y-84834761D01*
X172965714Y-84787142D01*
X173013333Y-84691904D01*
X173013333Y-83882380D01*
X173394285Y-83882380D02*
X174013333Y-83882380D01*
X173680000Y-84263333D01*
X173822857Y-84263333D01*
X173918095Y-84310952D01*
X173965714Y-84358571D01*
X174013333Y-84453809D01*
X174013333Y-84691904D01*
X173965714Y-84787142D01*
X173918095Y-84834761D01*
X173822857Y-84882380D01*
X173537142Y-84882380D01*
X173441904Y-84834761D01*
X173394285Y-84787142D01*
X174870476Y-83882380D02*
X174680000Y-83882380D01*
X174584761Y-83930000D01*
X174537142Y-83977619D01*
X174441904Y-84120476D01*
X174394285Y-84310952D01*
X174394285Y-84691904D01*
X174441904Y-84787142D01*
X174489523Y-84834761D01*
X174584761Y-84882380D01*
X174775238Y-84882380D01*
X174870476Y-84834761D01*
X174918095Y-84787142D01*
X174965714Y-84691904D01*
X174965714Y-84453809D01*
X174918095Y-84358571D01*
X174870476Y-84310952D01*
X174775238Y-84263333D01*
X174584761Y-84263333D01*
X174489523Y-84310952D01*
X174441904Y-84358571D01*
X174394285Y-84453809D01*
X24406904Y-64757380D02*
X24406904Y-65566904D01*
X24454523Y-65662142D01*
X24502142Y-65709761D01*
X24597380Y-65757380D01*
X24787857Y-65757380D01*
X24883095Y-65709761D01*
X24930714Y-65662142D01*
X24978333Y-65566904D01*
X24978333Y-64757380D01*
X25406904Y-64852619D02*
X25454523Y-64805000D01*
X25549761Y-64757380D01*
X25787857Y-64757380D01*
X25883095Y-64805000D01*
X25930714Y-64852619D01*
X25978333Y-64947857D01*
X25978333Y-65043095D01*
X25930714Y-65185952D01*
X25359285Y-65757380D01*
X25978333Y-65757380D01*
X26597380Y-64757380D02*
X26692619Y-64757380D01*
X26787857Y-64805000D01*
X26835476Y-64852619D01*
X26883095Y-64947857D01*
X26930714Y-65138333D01*
X26930714Y-65376428D01*
X26883095Y-65566904D01*
X26835476Y-65662142D01*
X26787857Y-65709761D01*
X26692619Y-65757380D01*
X26597380Y-65757380D01*
X26502142Y-65709761D01*
X26454523Y-65662142D01*
X26406904Y-65566904D01*
X26359285Y-65376428D01*
X26359285Y-65138333D01*
X26406904Y-64947857D01*
X26454523Y-64852619D01*
X26502142Y-64805000D01*
X26597380Y-64757380D01*
X215374404Y-64727380D02*
X215374404Y-65536904D01*
X215422023Y-65632142D01*
X215469642Y-65679761D01*
X215564880Y-65727380D01*
X215755357Y-65727380D01*
X215850595Y-65679761D01*
X215898214Y-65632142D01*
X215945833Y-65536904D01*
X215945833Y-64727380D01*
X216374404Y-64822619D02*
X216422023Y-64775000D01*
X216517261Y-64727380D01*
X216755357Y-64727380D01*
X216850595Y-64775000D01*
X216898214Y-64822619D01*
X216945833Y-64917857D01*
X216945833Y-65013095D01*
X216898214Y-65155952D01*
X216326785Y-65727380D01*
X216945833Y-65727380D01*
X217517261Y-65155952D02*
X217422023Y-65108333D01*
X217374404Y-65060714D01*
X217326785Y-64965476D01*
X217326785Y-64917857D01*
X217374404Y-64822619D01*
X217422023Y-64775000D01*
X217517261Y-64727380D01*
X217707738Y-64727380D01*
X217802976Y-64775000D01*
X217850595Y-64822619D01*
X217898214Y-64917857D01*
X217898214Y-64965476D01*
X217850595Y-65060714D01*
X217802976Y-65108333D01*
X217707738Y-65155952D01*
X217517261Y-65155952D01*
X217422023Y-65203571D01*
X217374404Y-65251190D01*
X217326785Y-65346428D01*
X217326785Y-65536904D01*
X217374404Y-65632142D01*
X217422023Y-65679761D01*
X217517261Y-65727380D01*
X217707738Y-65727380D01*
X217802976Y-65679761D01*
X217850595Y-65632142D01*
X217898214Y-65536904D01*
X217898214Y-65346428D01*
X217850595Y-65251190D01*
X217802976Y-65203571D01*
X217707738Y-65155952D01*
X81669404Y-45658630D02*
X81669404Y-46468154D01*
X81717023Y-46563392D01*
X81764642Y-46611011D01*
X81859880Y-46658630D01*
X82050357Y-46658630D01*
X82145595Y-46611011D01*
X82193214Y-46563392D01*
X82240833Y-46468154D01*
X82240833Y-45658630D01*
X83240833Y-46658630D02*
X82669404Y-46658630D01*
X82955119Y-46658630D02*
X82955119Y-45658630D01*
X82859880Y-45801488D01*
X82764642Y-45896726D01*
X82669404Y-45944345D01*
X83574166Y-45658630D02*
X84193214Y-45658630D01*
X83859880Y-46039583D01*
X84002738Y-46039583D01*
X84097976Y-46087202D01*
X84145595Y-46134821D01*
X84193214Y-46230059D01*
X84193214Y-46468154D01*
X84145595Y-46563392D01*
X84097976Y-46611011D01*
X84002738Y-46658630D01*
X83717023Y-46658630D01*
X83621785Y-46611011D01*
X83574166Y-46563392D01*
X81706904Y-64757380D02*
X81706904Y-65566904D01*
X81754523Y-65662142D01*
X81802142Y-65709761D01*
X81897380Y-65757380D01*
X82087857Y-65757380D01*
X82183095Y-65709761D01*
X82230714Y-65662142D01*
X82278333Y-65566904D01*
X82278333Y-64757380D01*
X82706904Y-64852619D02*
X82754523Y-64805000D01*
X82849761Y-64757380D01*
X83087857Y-64757380D01*
X83183095Y-64805000D01*
X83230714Y-64852619D01*
X83278333Y-64947857D01*
X83278333Y-65043095D01*
X83230714Y-65185952D01*
X82659285Y-65757380D01*
X83278333Y-65757380D01*
X83611666Y-64757380D02*
X84230714Y-64757380D01*
X83897380Y-65138333D01*
X84040238Y-65138333D01*
X84135476Y-65185952D01*
X84183095Y-65233571D01*
X84230714Y-65328809D01*
X84230714Y-65566904D01*
X84183095Y-65662142D01*
X84135476Y-65709761D01*
X84040238Y-65757380D01*
X83754523Y-65757380D01*
X83659285Y-65709761D01*
X83611666Y-65662142D01*
X196276904Y-26582380D02*
X196276904Y-27391904D01*
X196324523Y-27487142D01*
X196372142Y-27534761D01*
X196467380Y-27582380D01*
X196657857Y-27582380D01*
X196753095Y-27534761D01*
X196800714Y-27487142D01*
X196848333Y-27391904D01*
X196848333Y-26582380D01*
X197515000Y-26582380D02*
X197610238Y-26582380D01*
X197705476Y-26630000D01*
X197753095Y-26677619D01*
X197800714Y-26772857D01*
X197848333Y-26963333D01*
X197848333Y-27201428D01*
X197800714Y-27391904D01*
X197753095Y-27487142D01*
X197705476Y-27534761D01*
X197610238Y-27582380D01*
X197515000Y-27582380D01*
X197419761Y-27534761D01*
X197372142Y-27487142D01*
X197324523Y-27391904D01*
X197276904Y-27201428D01*
X197276904Y-26963333D01*
X197324523Y-26772857D01*
X197372142Y-26677619D01*
X197419761Y-26630000D01*
X197515000Y-26582380D01*
X198181666Y-26582380D02*
X198848333Y-26582380D01*
X198419761Y-27582380D01*
X143778570Y-83882380D02*
X143778570Y-84691904D01*
X143826189Y-84787142D01*
X143873808Y-84834761D01*
X143969046Y-84882380D01*
X144159523Y-84882380D01*
X144254761Y-84834761D01*
X144302380Y-84787142D01*
X144349999Y-84691904D01*
X144349999Y-83882380D01*
X144730951Y-83882380D02*
X145349999Y-83882380D01*
X145016666Y-84263333D01*
X145159523Y-84263333D01*
X145254761Y-84310952D01*
X145302380Y-84358571D01*
X145349999Y-84453809D01*
X145349999Y-84691904D01*
X145302380Y-84787142D01*
X145254761Y-84834761D01*
X145159523Y-84882380D01*
X144873808Y-84882380D01*
X144778570Y-84834761D01*
X144730951Y-84787142D01*
X146254761Y-83882380D02*
X145778570Y-83882380D01*
X145730951Y-84358571D01*
X145778570Y-84310952D01*
X145873808Y-84263333D01*
X146111904Y-84263333D01*
X146207142Y-84310952D01*
X146254761Y-84358571D01*
X146302380Y-84453809D01*
X146302380Y-84691904D01*
X146254761Y-84787142D01*
X146207142Y-84834761D01*
X146111904Y-84882380D01*
X145873808Y-84882380D01*
X145778570Y-84834761D01*
X145730951Y-84787142D01*
X115115237Y-83882380D02*
X115115237Y-84691904D01*
X115162856Y-84787142D01*
X115210475Y-84834761D01*
X115305713Y-84882380D01*
X115496190Y-84882380D01*
X115591428Y-84834761D01*
X115639047Y-84787142D01*
X115686666Y-84691904D01*
X115686666Y-83882380D01*
X116067618Y-83882380D02*
X116686666Y-83882380D01*
X116353333Y-84263333D01*
X116496190Y-84263333D01*
X116591428Y-84310952D01*
X116639047Y-84358571D01*
X116686666Y-84453809D01*
X116686666Y-84691904D01*
X116639047Y-84787142D01*
X116591428Y-84834761D01*
X116496190Y-84882380D01*
X116210475Y-84882380D01*
X116115237Y-84834761D01*
X116067618Y-84787142D01*
X117543809Y-84215714D02*
X117543809Y-84882380D01*
X117305713Y-83834761D02*
X117067618Y-84549047D01*
X117686666Y-84549047D01*
D11*
X166590000Y-80475000D02*
X166590000Y-78475000D01*
X156375000Y-63820000D02*
X174075000Y-63820000D01*
X174075000Y-78320000D02*
X156375000Y-78320000D01*
X156375000Y-78320000D02*
X156375000Y-63820000D01*
X174075000Y-63820000D02*
X174075000Y-78320000D01*
X166590000Y-78475000D02*
X162690000Y-78475000D01*
X166590000Y-80475000D02*
X162690000Y-80475000D01*
X71145000Y-78505000D02*
X67245000Y-78505000D01*
X60930000Y-78350000D02*
X60930000Y-63850000D01*
X60930000Y-63850000D02*
X78630000Y-63850000D01*
X71145000Y-80505000D02*
X67245000Y-80505000D01*
X78630000Y-78350000D02*
X60930000Y-78350000D01*
X71145000Y-80505000D02*
X71145000Y-78505000D01*
X78630000Y-63850000D02*
X78630000Y-78350000D01*
X59510000Y-25650000D02*
X59510000Y-40150000D01*
X52025000Y-42305000D02*
X48125000Y-42305000D01*
X52025000Y-42305000D02*
X52025000Y-40305000D01*
X59510000Y-40150000D02*
X41810000Y-40150000D01*
X41810000Y-25650000D02*
X59510000Y-25650000D01*
X41810000Y-40150000D02*
X41810000Y-25650000D01*
X52025000Y-40305000D02*
X48125000Y-40305000D01*
X59530000Y-78350000D02*
X41830000Y-78350000D01*
X52045000Y-78505000D02*
X48145000Y-78505000D01*
X41830000Y-78350000D02*
X41830000Y-63850000D01*
X41830000Y-63850000D02*
X59530000Y-63850000D01*
X52045000Y-80505000D02*
X52045000Y-78505000D01*
X52045000Y-80505000D02*
X48145000Y-80505000D01*
X59530000Y-63850000D02*
X59530000Y-78350000D01*
X32945000Y-61406250D02*
X32945000Y-59406250D01*
X22730000Y-59251250D02*
X22730000Y-44751250D01*
X32945000Y-59406250D02*
X29045000Y-59406250D01*
X40430000Y-44751250D02*
X40430000Y-59251250D01*
X22730000Y-44751250D02*
X40430000Y-44751250D01*
X40430000Y-59251250D02*
X22730000Y-59251250D01*
X32945000Y-61406250D02*
X29045000Y-61406250D01*
X59517500Y-44751250D02*
X59517500Y-59251250D01*
X52032500Y-61406250D02*
X52032500Y-59406250D01*
X41817500Y-59251250D02*
X41817500Y-44751250D01*
X41817500Y-44751250D02*
X59517500Y-44751250D01*
X59517500Y-59251250D02*
X41817500Y-59251250D01*
X52032500Y-59406250D02*
X48132500Y-59406250D01*
X52032500Y-61406250D02*
X48132500Y-61406250D01*
X90185000Y-42305000D02*
X86285000Y-42305000D01*
X79970000Y-25650000D02*
X97670000Y-25650000D01*
X79970000Y-40150000D02*
X79970000Y-25650000D01*
X90185000Y-42305000D02*
X90185000Y-40305000D01*
X90185000Y-40305000D02*
X86285000Y-40305000D01*
X97670000Y-40150000D02*
X79970000Y-40150000D01*
X97670000Y-25650000D02*
X97670000Y-40150000D01*
X193187500Y-25675000D02*
X193187500Y-40175000D01*
X175487500Y-25675000D02*
X193187500Y-25675000D01*
X175487500Y-40175000D02*
X175487500Y-25675000D01*
X185702500Y-42330000D02*
X185702500Y-40330000D01*
X185702500Y-42330000D02*
X181802500Y-42330000D01*
X185702500Y-40330000D02*
X181802500Y-40330000D01*
X193187500Y-40175000D02*
X175487500Y-40175000D01*
X185697500Y-61420000D02*
X185697500Y-59420000D01*
X175482500Y-44765000D02*
X193182500Y-44765000D01*
X193182500Y-44765000D02*
X193182500Y-59265000D01*
X185697500Y-59420000D02*
X181797500Y-59420000D01*
X193182500Y-59265000D02*
X175482500Y-59265000D01*
X175482500Y-59265000D02*
X175482500Y-44765000D01*
X185697500Y-61420000D02*
X181797500Y-61420000D01*
X175482500Y-63820000D02*
X193182500Y-63820000D01*
X193182500Y-78320000D02*
X175482500Y-78320000D01*
X193182500Y-63820000D02*
X193182500Y-78320000D01*
X175482500Y-78320000D02*
X175482500Y-63820000D01*
X185697500Y-80475000D02*
X181797500Y-80475000D01*
X185697500Y-80475000D02*
X185697500Y-78475000D01*
X185697500Y-78475000D02*
X181797500Y-78475000D01*
X99080000Y-59251250D02*
X99080000Y-44751250D01*
X116780000Y-59251250D02*
X99080000Y-59251250D01*
X109295000Y-61406250D02*
X105395000Y-61406250D01*
X99080000Y-44751250D02*
X116780000Y-44751250D01*
X116780000Y-44751250D02*
X116780000Y-59251250D01*
X109295000Y-61406250D02*
X109295000Y-59406250D01*
X109295000Y-59406250D02*
X105395000Y-59406250D01*
X109265000Y-40305000D02*
X105365000Y-40305000D01*
X116750000Y-25650000D02*
X116750000Y-40150000D01*
X109265000Y-42305000D02*
X105365000Y-42305000D01*
X99050000Y-40150000D02*
X99050000Y-25650000D01*
X116750000Y-40150000D02*
X99050000Y-40150000D01*
X109265000Y-42305000D02*
X109265000Y-40305000D01*
X99050000Y-25650000D02*
X116750000Y-25650000D01*
X60890000Y-40150000D02*
X60890000Y-25650000D01*
X78590000Y-40150000D02*
X60890000Y-40150000D01*
X78590000Y-25650000D02*
X78590000Y-40150000D01*
X60890000Y-25650000D02*
X78590000Y-25650000D01*
X71105000Y-42305000D02*
X71105000Y-40305000D01*
X71105000Y-42305000D02*
X67205000Y-42305000D01*
X71105000Y-40305000D02*
X67205000Y-40305000D01*
X174075000Y-25675000D02*
X174075000Y-40175000D01*
X166590000Y-42330000D02*
X162690000Y-42330000D01*
X166590000Y-42330000D02*
X166590000Y-40330000D01*
X156375000Y-25675000D02*
X174075000Y-25675000D01*
X166590000Y-40330000D02*
X162690000Y-40330000D01*
X156375000Y-40175000D02*
X156375000Y-25675000D01*
X174075000Y-40175000D02*
X156375000Y-40175000D01*
X166590000Y-61420000D02*
X166590000Y-59420000D01*
X156375000Y-44765000D02*
X174075000Y-44765000D01*
X174075000Y-44765000D02*
X174075000Y-59265000D01*
X174075000Y-59265000D02*
X156375000Y-59265000D01*
X166590000Y-59420000D02*
X162690000Y-59420000D01*
X166590000Y-61420000D02*
X162690000Y-61420000D01*
X156375000Y-59265000D02*
X156375000Y-44765000D01*
X116830000Y-78355000D02*
X99130000Y-78355000D01*
X99130000Y-63855000D02*
X116830000Y-63855000D01*
X116830000Y-63855000D02*
X116830000Y-78355000D01*
X109345000Y-80510000D02*
X105445000Y-80510000D01*
X109345000Y-78510000D02*
X105445000Y-78510000D01*
X109345000Y-80510000D02*
X109345000Y-78510000D01*
X99130000Y-78355000D02*
X99130000Y-63855000D01*
X204805000Y-61420000D02*
X200905000Y-61420000D01*
X194590000Y-59265000D02*
X194590000Y-44765000D01*
X212290000Y-59265000D02*
X194590000Y-59265000D01*
X212290000Y-44765000D02*
X212290000Y-59265000D01*
X194590000Y-44765000D02*
X212290000Y-44765000D01*
X204805000Y-61420000D02*
X204805000Y-59420000D01*
X204805000Y-59420000D02*
X200905000Y-59420000D01*
X78605000Y-59251250D02*
X60905000Y-59251250D01*
X60905000Y-59251250D02*
X60905000Y-44751250D01*
X78605000Y-44751250D02*
X78605000Y-59251250D01*
X71120000Y-61406250D02*
X71120000Y-59406250D01*
X71120000Y-61406250D02*
X67220000Y-61406250D01*
X71120000Y-59406250D02*
X67220000Y-59406250D01*
X60905000Y-44751250D02*
X78605000Y-44751250D01*
X232805000Y-63820000D02*
X250505000Y-63820000D01*
X243020000Y-80475000D02*
X239120000Y-80475000D01*
X250505000Y-78320000D02*
X232805000Y-78320000D01*
X232805000Y-78320000D02*
X232805000Y-63820000D01*
X250505000Y-63820000D02*
X250505000Y-78320000D01*
X243020000Y-78475000D02*
X239120000Y-78475000D01*
X243020000Y-80475000D02*
X243020000Y-78475000D01*
X243020000Y-61420000D02*
X243020000Y-59420000D01*
X250505000Y-59265000D02*
X232805000Y-59265000D01*
X243020000Y-61420000D02*
X239120000Y-61420000D01*
X232805000Y-59265000D02*
X232805000Y-44765000D01*
X243020000Y-59420000D02*
X239120000Y-59420000D01*
X232805000Y-44765000D02*
X250505000Y-44765000D01*
X250505000Y-44765000D02*
X250505000Y-59265000D01*
X250525000Y-40175000D02*
X232825000Y-40175000D01*
X243040000Y-42330000D02*
X243040000Y-40330000D01*
X243040000Y-40330000D02*
X239140000Y-40330000D01*
X250525000Y-25675000D02*
X250525000Y-40175000D01*
X232825000Y-40175000D02*
X232825000Y-25675000D01*
X243040000Y-42330000D02*
X239140000Y-42330000D01*
X232825000Y-25675000D02*
X250525000Y-25675000D01*
X32945000Y-42305000D02*
X29045000Y-42305000D01*
X40430000Y-25650000D02*
X40430000Y-40150000D01*
X32945000Y-40305000D02*
X29045000Y-40305000D01*
X22730000Y-25650000D02*
X40430000Y-25650000D01*
X32945000Y-42305000D02*
X32945000Y-40305000D01*
X22730000Y-40150000D02*
X22730000Y-25650000D01*
X40430000Y-40150000D02*
X22730000Y-40150000D01*
X212290000Y-63820000D02*
X212290000Y-78320000D01*
X194590000Y-78320000D02*
X194590000Y-63820000D01*
X204805000Y-80475000D02*
X204805000Y-78475000D01*
X212290000Y-78320000D02*
X194590000Y-78320000D01*
X204805000Y-80475000D02*
X200905000Y-80475000D01*
X204805000Y-78475000D02*
X200905000Y-78475000D01*
X194590000Y-63820000D02*
X212290000Y-63820000D01*
X223927500Y-42330000D02*
X223927500Y-40330000D01*
X223927500Y-42330000D02*
X220027500Y-42330000D01*
X213712500Y-40175000D02*
X213712500Y-25675000D01*
X231412500Y-25675000D02*
X231412500Y-40175000D01*
X223927500Y-40330000D02*
X220027500Y-40330000D01*
X231412500Y-40175000D02*
X213712500Y-40175000D01*
X213712500Y-25675000D02*
X231412500Y-25675000D01*
X223912500Y-61420000D02*
X220012500Y-61420000D01*
X213697500Y-44765000D02*
X231397500Y-44765000D01*
X231397500Y-59265000D02*
X213697500Y-59265000D01*
X223912500Y-61420000D02*
X223912500Y-59420000D01*
X223912500Y-59420000D02*
X220012500Y-59420000D01*
X231397500Y-44765000D02*
X231397500Y-59265000D01*
X213697500Y-59265000D02*
X213697500Y-44765000D01*
X94990000Y-99630000D02*
X94990000Y-97630000D01*
X102475000Y-82975000D02*
X102475000Y-97475000D01*
X84775000Y-97475000D02*
X84775000Y-82975000D01*
X84775000Y-82975000D02*
X102475000Y-82975000D01*
X94990000Y-97630000D02*
X91090000Y-97630000D01*
X94990000Y-99630000D02*
X91090000Y-99630000D01*
X102475000Y-97475000D02*
X84775000Y-97475000D01*
X170765000Y-82975000D02*
X188465000Y-82975000D01*
X188465000Y-82975000D02*
X188465000Y-97475000D01*
X170765000Y-97475000D02*
X170765000Y-82975000D01*
X180980000Y-99630000D02*
X180980000Y-97630000D01*
X180980000Y-99630000D02*
X177080000Y-99630000D01*
X180980000Y-97630000D02*
X177080000Y-97630000D01*
X188465000Y-97475000D02*
X170765000Y-97475000D01*
X22730000Y-78350000D02*
X22730000Y-63850000D01*
X32945000Y-80505000D02*
X32945000Y-78505000D01*
X32945000Y-80505000D02*
X29045000Y-80505000D01*
X22730000Y-63850000D02*
X40430000Y-63850000D01*
X32945000Y-78505000D02*
X29045000Y-78505000D01*
X40430000Y-63850000D02*
X40430000Y-78350000D01*
X40430000Y-78350000D02*
X22730000Y-78350000D01*
X231397500Y-78320000D02*
X213697500Y-78320000D01*
X223912500Y-80475000D02*
X220012500Y-80475000D01*
X223912500Y-78475000D02*
X220012500Y-78475000D01*
X213697500Y-63820000D02*
X231397500Y-63820000D01*
X213697500Y-78320000D02*
X213697500Y-63820000D01*
X223912500Y-80475000D02*
X223912500Y-78475000D01*
X231397500Y-63820000D02*
X231397500Y-78320000D01*
X90207500Y-59406250D02*
X86307500Y-59406250D01*
X90207500Y-61406250D02*
X90207500Y-59406250D01*
X97692500Y-44751250D02*
X97692500Y-59251250D01*
X79992500Y-44751250D02*
X97692500Y-44751250D01*
X97692500Y-59251250D02*
X79992500Y-59251250D01*
X79992500Y-59251250D02*
X79992500Y-44751250D01*
X90207500Y-61406250D02*
X86307500Y-61406250D01*
X90245000Y-80505000D02*
X90245000Y-78505000D01*
X90245000Y-80505000D02*
X86345000Y-80505000D01*
X80030000Y-78350000D02*
X80030000Y-63850000D01*
X97730000Y-63850000D02*
X97730000Y-78350000D01*
X90245000Y-78505000D02*
X86345000Y-78505000D01*
X80030000Y-63850000D02*
X97730000Y-63850000D01*
X97730000Y-78350000D02*
X80030000Y-78350000D01*
X212300000Y-40175000D02*
X194600000Y-40175000D01*
X204815000Y-40330000D02*
X200915000Y-40330000D01*
X194600000Y-25675000D02*
X212300000Y-25675000D01*
X212300000Y-25675000D02*
X212300000Y-40175000D01*
X204815000Y-42330000D02*
X204815000Y-40330000D01*
X194600000Y-40175000D02*
X194600000Y-25675000D01*
X204815000Y-42330000D02*
X200915000Y-42330000D01*
X152316666Y-99630000D02*
X152316666Y-97630000D01*
X152316666Y-99630000D02*
X148416666Y-99630000D01*
X152316666Y-97630000D02*
X148416666Y-97630000D01*
X142101666Y-82975000D02*
X159801666Y-82975000D01*
X142101666Y-97475000D02*
X142101666Y-82975000D01*
X159801666Y-97475000D02*
X142101666Y-97475000D01*
X159801666Y-82975000D02*
X159801666Y-97475000D01*
X123653333Y-99630000D02*
X119753333Y-99630000D01*
X123653333Y-99630000D02*
X123653333Y-97630000D01*
X113438333Y-82975000D02*
X131138333Y-82975000D01*
X123653333Y-97630000D02*
X119753333Y-97630000D01*
X131138333Y-97475000D02*
X113438333Y-97475000D01*
X113438333Y-97475000D02*
X113438333Y-82975000D01*
X131138333Y-82975000D02*
X131138333Y-97475000D01*
%LPC*%
D12*
X167725000Y-66570000D03*
D13*
X165990000Y-79475000D03*
X162690000Y-79475000D03*
D12*
X162725000Y-67070000D03*
X72280000Y-66600000D03*
D13*
X70545000Y-79505000D03*
D12*
X67280000Y-67100000D03*
D13*
X67245000Y-79505000D03*
D12*
X53160000Y-28400000D03*
D13*
X51425000Y-41305000D03*
X48125000Y-41305000D03*
D12*
X48160000Y-28900000D03*
X53180000Y-66600000D03*
D13*
X51445000Y-79505000D03*
X48145000Y-79505000D03*
D12*
X48180000Y-67100000D03*
X34080000Y-47501250D03*
D13*
X32345000Y-60406250D03*
X29045000Y-60406250D03*
D12*
X29080000Y-48001250D03*
X53167500Y-47501250D03*
D13*
X51432500Y-60406250D03*
D12*
X48167500Y-48001250D03*
D13*
X48132500Y-60406250D03*
D12*
X91320000Y-28400000D03*
D13*
X89585000Y-41305000D03*
X86285000Y-41305000D03*
D12*
X86320000Y-28900000D03*
D13*
X181802500Y-41330000D03*
D12*
X181837500Y-28925000D03*
D13*
X185102500Y-41330000D03*
D12*
X186837500Y-28425000D03*
X181832500Y-48015000D03*
D13*
X181797500Y-60420000D03*
X185097500Y-60420000D03*
D12*
X186832500Y-47515000D03*
X186832500Y-66570000D03*
D13*
X185097500Y-79475000D03*
D12*
X181832500Y-67070000D03*
D13*
X181797500Y-79475000D03*
D12*
X110430000Y-47501250D03*
D13*
X108695000Y-60406250D03*
D12*
X105430000Y-48001250D03*
D13*
X105395000Y-60406250D03*
D12*
X110400000Y-28400000D03*
D13*
X108665000Y-41305000D03*
D12*
X105400000Y-28900000D03*
D13*
X105365000Y-41305000D03*
D12*
X72240000Y-28400000D03*
D13*
X70505000Y-41305000D03*
D12*
X67240000Y-28900000D03*
D13*
X67205000Y-41305000D03*
D12*
X162725000Y-28925000D03*
D13*
X162690000Y-41330000D03*
X165990000Y-41330000D03*
D12*
X167725000Y-28425000D03*
X162725000Y-48015000D03*
D13*
X162690000Y-60420000D03*
X165990000Y-60420000D03*
D12*
X167725000Y-47515000D03*
X110480000Y-66605000D03*
D13*
X108745000Y-79510000D03*
D12*
X105480000Y-67105000D03*
D13*
X105445000Y-79510000D03*
X200905000Y-60420000D03*
D12*
X200940000Y-48015000D03*
D13*
X204205000Y-60420000D03*
D12*
X205940000Y-47515000D03*
X72255000Y-47501250D03*
D13*
X70520000Y-60406250D03*
D12*
X67255000Y-48001250D03*
D13*
X67220000Y-60406250D03*
D12*
X244155000Y-66570000D03*
D13*
X242420000Y-79475000D03*
X239120000Y-79475000D03*
D12*
X239155000Y-67070000D03*
X239155000Y-48015000D03*
D13*
X239120000Y-60420000D03*
X242420000Y-60420000D03*
D12*
X244155000Y-47515000D03*
D13*
X239140000Y-41330000D03*
D12*
X239175000Y-28925000D03*
D13*
X242440000Y-41330000D03*
D12*
X244175000Y-28425000D03*
X34080000Y-28400000D03*
D13*
X32345000Y-41305000D03*
D12*
X29080000Y-28900000D03*
D13*
X29045000Y-41305000D03*
D12*
X205940000Y-66570000D03*
D13*
X204205000Y-79475000D03*
D12*
X200940000Y-67070000D03*
D13*
X200905000Y-79475000D03*
D14*
X129007000Y-24700000D03*
X128753000Y-27240000D03*
X129007000Y-29780000D03*
X128753000Y-32320000D03*
X129007000Y-34860000D03*
X128753000Y-37400000D03*
X129007000Y-39940000D03*
X128753000Y-42480000D03*
X129007000Y-45020000D03*
X128753000Y-47560000D03*
X129007000Y-50100000D03*
X128753000Y-52640000D03*
X129007000Y-55180000D03*
X128753000Y-57720000D03*
X129007000Y-60260000D03*
X128753000Y-62800000D03*
X129007000Y-65340000D03*
X128753000Y-67880000D03*
X129007000Y-70420000D03*
X128753000Y-72960000D03*
X144247000Y-72960000D03*
X143993000Y-70420000D03*
X144247000Y-67880000D03*
X143993000Y-65340000D03*
X144247000Y-62800000D03*
X143993000Y-60260000D03*
X144247000Y-57720000D03*
X143993000Y-55180000D03*
X144247000Y-52640000D03*
X143993000Y-50100000D03*
X144247000Y-47560000D03*
X143993000Y-45020000D03*
X144247000Y-42480000D03*
X143993000Y-39940000D03*
X144247000Y-37400000D03*
X143993000Y-34860000D03*
X144247000Y-32320000D03*
X143993000Y-29780000D03*
X144247000Y-27240000D03*
X143993000Y-24700000D03*
D15*
X132690000Y-68977000D03*
D14*
X135230000Y-68723000D03*
X137770000Y-68977000D03*
X140310000Y-68723000D03*
D12*
X220062500Y-28925000D03*
D13*
X220027500Y-41330000D03*
X223327500Y-41330000D03*
D12*
X225062500Y-28425000D03*
X220047500Y-48015000D03*
D13*
X220012500Y-60420000D03*
X223312500Y-60420000D03*
D12*
X225047500Y-47515000D03*
D13*
X91090000Y-98630000D03*
D12*
X91125000Y-86225000D03*
D13*
X94390000Y-98630000D03*
D12*
X96125000Y-85725000D03*
D13*
X177080000Y-98630000D03*
D12*
X177115000Y-86225000D03*
D13*
X180380000Y-98630000D03*
D12*
X182115000Y-85725000D03*
X34080000Y-66600000D03*
D13*
X32345000Y-79505000D03*
D12*
X29080000Y-67100000D03*
D13*
X29045000Y-79505000D03*
D12*
X225047500Y-66570000D03*
D13*
X223312500Y-79475000D03*
D12*
X220047500Y-67070000D03*
D13*
X220012500Y-79475000D03*
D12*
X91342500Y-47501250D03*
D13*
X89607500Y-60406250D03*
D12*
X86342500Y-48001250D03*
D13*
X86307500Y-60406250D03*
D12*
X91380000Y-66600000D03*
D13*
X89645000Y-79505000D03*
X86345000Y-79505000D03*
D12*
X86380000Y-67100000D03*
D13*
X200915000Y-41330000D03*
D12*
X200950000Y-28925000D03*
D13*
X204215000Y-41330000D03*
D12*
X205950000Y-28425000D03*
D13*
X148416666Y-98630000D03*
D12*
X148451666Y-86225000D03*
D13*
X151716666Y-98630000D03*
D12*
X153451666Y-85725000D03*
D13*
X119753333Y-98630000D03*
D12*
X119788333Y-86225000D03*
D13*
X123053333Y-98630000D03*
D12*
X124788333Y-85725000D03*
M02*
