%TF.GenerationSoftware,KiCad,Pcbnew,6.0.7*%
%TF.CreationDate,2022-09-06T10:41:23+02:00*%
%TF.ProjectId,box_o_alps,626f785f-6f5f-4616-9c70-732e6b696361,rev?*%
%TF.SameCoordinates,Original*%
%TF.FileFunction,Drillmap*%
%TF.FilePolarity,Positive*%
%FSLAX45Y45*%
G04 Gerber Fmt 4.5, Leading zero omitted, Abs format (unit mm)*
G04 Created by KiCad (PCBNEW 6.0.7) date 2022-09-06 10:41:23*
%MOMM*%
%LPD*%
G01*
G04 APERTURE LIST*
%ADD10C,0.200000*%
G04 APERTURE END LIST*
D10*
X25320500Y-2433000D02*
G75*
G03*
X25020500Y-2133000I-300000J0D01*
G01*
X2300500Y-2133000D02*
X25020500Y-2133000D01*
X2300500Y-2133000D02*
G75*
G03*
X2000500Y-2433000I0J-300000D01*
G01*
X2000500Y-7963000D02*
X2000500Y-2433000D01*
X2000500Y-7963000D02*
G75*
G03*
X2300500Y-8263000I300000J0D01*
G01*
X7430500Y-8263000D02*
X2300500Y-8263000D01*
X7730500Y-8563000D02*
G75*
G03*
X7430500Y-8263000I-300000J0D01*
G01*
X7730500Y-9873000D02*
X7730500Y-8563000D01*
X7730500Y-9873000D02*
G75*
G03*
X8030500Y-10173000I300000J0D01*
G01*
X19290500Y-10173000D02*
X8030500Y-10173000D01*
X19290500Y-10173000D02*
G75*
G03*
X19590500Y-9873000I0J300000D01*
G01*
X19590500Y-8563000D02*
X19590500Y-9873000D01*
X19890500Y-8263000D02*
G75*
G03*
X19590500Y-8563000I0J-300000D01*
G01*
X25020500Y-8263000D02*
X19890500Y-8263000D01*
X25020500Y-8263000D02*
G75*
G03*
X25320500Y-7963000I0J300000D01*
G01*
X25320500Y-2433000D02*
X25320500Y-7963000D01*
X2248119Y-10493476D02*
X2248119Y-10293476D01*
X2295738Y-10293476D01*
X2324310Y-10303000D01*
X2343357Y-10322048D01*
X2352881Y-10341095D01*
X2362405Y-10379190D01*
X2362405Y-10407762D01*
X2352881Y-10445857D01*
X2343357Y-10464905D01*
X2324310Y-10483952D01*
X2295738Y-10493476D01*
X2248119Y-10493476D01*
X2448119Y-10493476D02*
X2448119Y-10360143D01*
X2448119Y-10398238D02*
X2457643Y-10379190D01*
X2467167Y-10369667D01*
X2486214Y-10360143D01*
X2505262Y-10360143D01*
X2571929Y-10493476D02*
X2571929Y-10360143D01*
X2571929Y-10293476D02*
X2562405Y-10303000D01*
X2571929Y-10312524D01*
X2581452Y-10303000D01*
X2571929Y-10293476D01*
X2571929Y-10312524D01*
X2695738Y-10493476D02*
X2676690Y-10483952D01*
X2667167Y-10464905D01*
X2667167Y-10293476D01*
X2800500Y-10493476D02*
X2781452Y-10483952D01*
X2771929Y-10464905D01*
X2771929Y-10293476D01*
X3029071Y-10493476D02*
X3029071Y-10293476D01*
X3095738Y-10436333D01*
X3162405Y-10293476D01*
X3162405Y-10493476D01*
X3343357Y-10493476D02*
X3343357Y-10388714D01*
X3333833Y-10369667D01*
X3314786Y-10360143D01*
X3276690Y-10360143D01*
X3257643Y-10369667D01*
X3343357Y-10483952D02*
X3324309Y-10493476D01*
X3276690Y-10493476D01*
X3257643Y-10483952D01*
X3248119Y-10464905D01*
X3248119Y-10445857D01*
X3257643Y-10426810D01*
X3276690Y-10417286D01*
X3324309Y-10417286D01*
X3343357Y-10407762D01*
X3438595Y-10360143D02*
X3438595Y-10560143D01*
X3438595Y-10369667D02*
X3457643Y-10360143D01*
X3495738Y-10360143D01*
X3514786Y-10369667D01*
X3524309Y-10379190D01*
X3533833Y-10398238D01*
X3533833Y-10455381D01*
X3524309Y-10474429D01*
X3514786Y-10483952D01*
X3495738Y-10493476D01*
X3457643Y-10493476D01*
X3438595Y-10483952D01*
X3619548Y-10474429D02*
X3629071Y-10483952D01*
X3619548Y-10493476D01*
X3610024Y-10483952D01*
X3619548Y-10474429D01*
X3619548Y-10493476D01*
X3619548Y-10369667D02*
X3629071Y-10379190D01*
X3619548Y-10388714D01*
X3610024Y-10379190D01*
X3619548Y-10369667D01*
X3619548Y-10388714D01*
M02*
