G04 #@! TF.GenerationSoftware,KiCad,Pcbnew,6.0.7*
G04 #@! TF.CreationDate,2022-09-06T10:42:03+02:00*
G04 #@! TF.ProjectId,box_o_alps,626f785f-6f5f-4616-9c70-732e6b696361,rev?*
G04 #@! TF.SameCoordinates,Original*
G04 #@! TF.FileFunction,Legend,Bot*
G04 #@! TF.FilePolarity,Positive*
%FSLAX46Y46*%
G04 Gerber Fmt 4.6, Leading zero omitted, Abs format (unit mm)*
G04 Created by KiCad (PCBNEW 6.0.7) date 2022-09-06 10:42:03*
%MOMM*%
%LPD*%
G01*
G04 APERTURE LIST*
G04 Aperture macros list*
%AMRoundRect*
0 Rectangle with rounded corners*
0 $1 Rounding radius*
0 $2 $3 $4 $5 $6 $7 $8 $9 X,Y pos of 4 corners*
0 Add a 4 corners polygon primitive as box body*
4,1,4,$2,$3,$4,$5,$6,$7,$8,$9,$2,$3,0*
0 Add four circle primitives for the rounded corners*
1,1,$1+$1,$2,$3*
1,1,$1+$1,$4,$5*
1,1,$1+$1,$6,$7*
1,1,$1+$1,$8,$9*
0 Add four rect primitives between the rounded corners*
20,1,$1+$1,$2,$3,$4,$5,0*
20,1,$1+$1,$4,$5,$6,$7,0*
20,1,$1+$1,$6,$7,$8,$9,0*
20,1,$1+$1,$8,$9,$2,$3,0*%
G04 Aperture macros list end*
%ADD10C,2.200000*%
%ADD11C,2.082800*%
%ADD12RoundRect,0.101600X0.939800X-0.939800X0.939800X0.939800X-0.939800X0.939800X-0.939800X-0.939800X0*%
G04 APERTURE END LIST*
%LPC*%
D10*
X167725000Y-66570000D03*
X162725000Y-67070000D03*
X72280000Y-66600000D03*
X67280000Y-67100000D03*
X53160000Y-28400000D03*
X48160000Y-28900000D03*
X53180000Y-66600000D03*
X48180000Y-67100000D03*
X34080000Y-47501250D03*
X29080000Y-48001250D03*
X53167500Y-47501250D03*
X48167500Y-48001250D03*
X91320000Y-28400000D03*
X86320000Y-28900000D03*
X181837500Y-28925000D03*
X186837500Y-28425000D03*
X181832500Y-48015000D03*
X186832500Y-47515000D03*
X186832500Y-66570000D03*
X181832500Y-67070000D03*
X110430000Y-47501250D03*
X105430000Y-48001250D03*
X110400000Y-28400000D03*
X105400000Y-28900000D03*
X72240000Y-28400000D03*
X67240000Y-28900000D03*
X162725000Y-28925000D03*
X167725000Y-28425000D03*
X162725000Y-48015000D03*
X167725000Y-47515000D03*
X110480000Y-66605000D03*
X105480000Y-67105000D03*
X200940000Y-48015000D03*
X205940000Y-47515000D03*
X72255000Y-47501250D03*
X67255000Y-48001250D03*
X244155000Y-66570000D03*
X239155000Y-67070000D03*
X239155000Y-48015000D03*
X244155000Y-47515000D03*
X239175000Y-28925000D03*
X244175000Y-28425000D03*
X34080000Y-28400000D03*
X29080000Y-28900000D03*
X205940000Y-66570000D03*
X200940000Y-67070000D03*
D11*
X129007000Y-24700000D03*
X128753000Y-27240000D03*
X129007000Y-29780000D03*
X128753000Y-32320000D03*
X129007000Y-34860000D03*
X128753000Y-37400000D03*
X129007000Y-39940000D03*
X128753000Y-42480000D03*
X129007000Y-45020000D03*
X128753000Y-47560000D03*
X129007000Y-50100000D03*
X128753000Y-52640000D03*
X129007000Y-55180000D03*
X128753000Y-57720000D03*
X129007000Y-60260000D03*
X128753000Y-62800000D03*
X129007000Y-65340000D03*
X128753000Y-67880000D03*
X129007000Y-70420000D03*
X128753000Y-72960000D03*
X144247000Y-72960000D03*
X143993000Y-70420000D03*
X144247000Y-67880000D03*
X143993000Y-65340000D03*
X144247000Y-62800000D03*
X143993000Y-60260000D03*
X144247000Y-57720000D03*
X143993000Y-55180000D03*
X144247000Y-52640000D03*
X143993000Y-50100000D03*
X144247000Y-47560000D03*
X143993000Y-45020000D03*
X144247000Y-42480000D03*
X143993000Y-39940000D03*
X144247000Y-37400000D03*
X143993000Y-34860000D03*
X144247000Y-32320000D03*
X143993000Y-29780000D03*
X144247000Y-27240000D03*
X143993000Y-24700000D03*
D12*
X132690000Y-68977000D03*
D11*
X135230000Y-68723000D03*
X137770000Y-68977000D03*
X140310000Y-68723000D03*
D10*
X220062500Y-28925000D03*
X225062500Y-28425000D03*
X220047500Y-48015000D03*
X225047500Y-47515000D03*
X91125000Y-86225000D03*
X96125000Y-85725000D03*
X177115000Y-86225000D03*
X182115000Y-85725000D03*
X34080000Y-66600000D03*
X29080000Y-67100000D03*
X225047500Y-66570000D03*
X220047500Y-67070000D03*
X91342500Y-47501250D03*
X86342500Y-48001250D03*
X91380000Y-66600000D03*
X86380000Y-67100000D03*
X200950000Y-28925000D03*
X205950000Y-28425000D03*
X148451666Y-86225000D03*
X153451666Y-85725000D03*
X119788333Y-86225000D03*
X124788333Y-85725000D03*
M02*
