M48
; DRILL file {KiCad 6.0.7} date Tue Sep  6 10:41:25 2022
; FORMAT={-:-/ absolute / metric / decimal}
; #@! TF.CreationDate,2022-09-06T10:41:25+02:00
; #@! TF.GenerationSoftware,Kicad,Pcbnew,6.0.7
; #@! TF.FileFunction,Plated,1,2,PTH
FMAT,2
METRIC
; #@! TA.AperFunction,Plated,PTH,ComponentDrill
T1C1.016
; #@! TA.AperFunction,Plated,PTH,ComponentDrill
T2C1.500
%
G90
G05
T1
X128.753Y-27.24
X128.753Y-32.32
X128.753Y-37.4
X128.753Y-42.48
X128.753Y-47.56
X128.753Y-52.64
X128.753Y-57.72
X128.753Y-62.8
X128.753Y-67.88
X128.753Y-72.96
X129.007Y-24.7
X129.007Y-29.78
X129.007Y-34.86
X129.007Y-39.94
X129.007Y-45.02
X129.007Y-50.1
X129.007Y-55.18
X129.007Y-60.26
X129.007Y-65.34
X129.007Y-70.42
X132.69Y-68.977
X135.23Y-68.723
X137.77Y-68.977
X140.31Y-68.723
X143.993Y-24.7
X143.993Y-29.78
X143.993Y-34.86
X143.993Y-39.94
X143.993Y-45.02
X143.993Y-50.1
X143.993Y-55.18
X143.993Y-60.26
X143.993Y-65.34
X143.993Y-70.42
X144.247Y-27.24
X144.247Y-32.32
X144.247Y-37.4
X144.247Y-42.48
X144.247Y-47.56
X144.247Y-52.64
X144.247Y-57.72
X144.247Y-62.8
X144.247Y-67.88
X144.247Y-72.96
T2
X29.08Y-28.9
X29.08Y-48.001
X29.08Y-67.1
X34.08Y-28.4
X34.08Y-47.501
X34.08Y-66.6
X48.16Y-28.9
X48.167Y-48.001
X48.18Y-67.1
X53.16Y-28.4
X53.167Y-47.501
X53.18Y-66.6
X67.24Y-28.9
X67.255Y-48.001
X67.28Y-67.1
X72.24Y-28.4
X72.255Y-47.501
X72.28Y-66.6
X86.32Y-28.9
X86.343Y-48.001
X86.38Y-67.1
X91.125Y-86.225
X91.32Y-28.4
X91.343Y-47.501
X91.38Y-66.6
X96.125Y-85.725
X105.4Y-28.9
X105.43Y-48.001
X105.48Y-67.105
X110.4Y-28.4
X110.43Y-47.501
X110.48Y-66.605
X119.788Y-86.225
X124.788Y-85.725
X148.452Y-86.225
X153.452Y-85.725
X162.725Y-28.925
X162.725Y-48.015
X162.725Y-67.07
X167.725Y-28.425
X167.725Y-47.515
X167.725Y-66.57
X177.115Y-86.225
X181.832Y-48.015
X181.832Y-67.07
X181.838Y-28.925
X182.115Y-85.725
X186.832Y-47.515
X186.832Y-66.57
X186.838Y-28.425
X200.94Y-48.015
X200.94Y-67.07
X200.95Y-28.925
X205.94Y-47.515
X205.94Y-66.57
X205.95Y-28.425
X220.047Y-48.015
X220.047Y-67.07
X220.062Y-28.925
X225.047Y-47.515
X225.047Y-66.57
X225.062Y-28.425
X239.155Y-48.015
X239.155Y-67.07
X239.175Y-28.925
X244.155Y-47.515
X244.155Y-66.57
X244.175Y-28.425
T0
M30
